<?xml version="1.0" standalone="no"?>
<svg xmlns:xlink="http://www.w3.org/1999/xlink" id="wave" style="transform:rotate(180deg); transition: 0.3s" viewBox="0 0 900 590" version="1.1" xmlns="http://www.w3.org/2000/svg"><defs><linearGradient id="sw-gradient-0" x1="0" x2="0" y1="1" y2="0"><stop stop-color="rgba(99, 179, 237, 1)" offset="0%"/><stop stop-color="rgba(190, 227, 248, 1)" offset="100%"/></linearGradient></defs><path style="transform:translate(0, 0px); opacity:1" fill="url(#sw-gradient-0)" d="M0,147L60,171.5C120,196,240,245,360,236.8C480,229,600,163,720,155.2C840,147,960,196,1080,204.2C1200,212,1320,180,1440,212.3C1560,245,1680,343,1800,392C1920,441,2040,441,2160,400.2C2280,359,2400,278,2520,204.2C2640,131,2760,65,2880,57.2C3000,49,3120,98,3240,171.5C3360,245,3480,343,3600,326.7C3720,310,3840,180,3960,138.8C4080,98,4200,147,4320,171.5C4440,196,4560,196,4680,179.7C4800,163,4920,131,5040,163.3C5160,196,5280,294,5400,294C5520,294,5640,196,5760,163.3C5880,131,6000,163,6120,163.3C6240,163,6360,131,6480,163.3C6600,196,6720,294,6840,334.8C6960,376,7080,359,7200,351.2C7320,343,7440,343,7560,294C7680,245,7800,147,7920,163.3C8040,180,8160,310,8280,310.3C8400,310,8520,180,8580,114.3L8640,49L8640,490L8580,490C8520,490,8400,490,8280,490C8160,490,8040,490,7920,490C7800,490,7680,490,7560,490C7440,490,7320,490,7200,490C7080,490,6960,490,6840,490C6720,490,6600,490,6480,490C6360,490,6240,490,6120,490C6000,490,5880,490,5760,490C5640,490,5520,490,5400,490C5280,490,5160,490,5040,490C4920,490,4800,490,4680,490C4560,490,4440,490,4320,490C4200,490,4080,490,3960,490C3840,490,3720,490,3600,490C3480,490,3360,490,3240,490C3120,490,3000,490,2880,490C2760,490,2640,490,2520,490C2400,490,2280,490,2160,490C2040,490,1920,490,1800,490C1680,490,1560,490,1440,490C1320,490,1200,490,1080,490C960,490,840,490,720,490C600,490,480,490,360,490C240,490,120,490,60,490L0,490Z"/><defs><linearGradient id="sw-gradient-1" x1="0" x2="0" y1="1" y2="0"><stop stop-color="rgba(99, 179, 237, 1)" offset="0%"/><stop stop-color="rgba(190, 227, 248, 1)" offset="100%"/></linearGradient></defs><path style="transform:translate(0, 50px); opacity:0.9" fill="url(#sw-gradient-1)" d="M0,441L60,416.5C120,392,240,343,360,343C480,343,600,392,720,359.3C840,327,960,212,1080,155.2C1200,98,1320,98,1440,106.2C1560,114,1680,131,1800,138.8C1920,147,2040,147,2160,163.3C2280,180,2400,212,2520,228.7C2640,245,2760,245,2880,220.5C3000,196,3120,147,3240,179.7C3360,212,3480,327,3600,334.8C3720,343,3840,245,3960,220.5C4080,196,4200,245,4320,261.3C4440,278,4560,261,4680,253.2C4800,245,4920,245,5040,236.8C5160,229,5280,212,5400,187.8C5520,163,5640,131,5760,130.7C5880,131,6000,163,6120,147C6240,131,6360,65,6480,65.3C6600,65,6720,131,6840,147C6960,163,7080,131,7200,171.5C7320,212,7440,327,7560,334.8C7680,343,7800,245,7920,220.5C8040,196,8160,245,8280,245C8400,245,8520,196,8580,171.5L8640,147L8640,490L8580,490C8520,490,8400,490,8280,490C8160,490,8040,490,7920,490C7800,490,7680,490,7560,490C7440,490,7320,490,7200,490C7080,490,6960,490,6840,490C6720,490,6600,490,6480,490C6360,490,6240,490,6120,490C6000,490,5880,490,5760,490C5640,490,5520,490,5400,490C5280,490,5160,490,5040,490C4920,490,4800,490,4680,490C4560,490,4440,490,4320,490C4200,490,4080,490,3960,490C3840,490,3720,490,3600,490C3480,490,3360,490,3240,490C3120,490,3000,490,2880,490C2760,490,2640,490,2520,490C2400,490,2280,490,2160,490C2040,490,1920,490,1800,490C1680,490,1560,490,1440,490C1320,490,1200,490,1080,490C960,490,840,490,720,490C600,490,480,490,360,490C240,490,120,490,60,490L0,490Z"/><defs><linearGradient id="sw-gradient-2" x1="0" x2="0" y1="1" y2="0"><stop stop-color="rgba(99, 179, 237, 1)" offset="0%"/><stop stop-color="rgba(190, 227, 248, 1)" offset="100%"/></linearGradient></defs><path style="transform:translate(0, 100px); opacity:0.8" fill="url(#sw-gradient-2)" d="M0,98L60,106.2C120,114,240,131,360,155.2C480,180,600,212,720,261.3C840,310,960,376,1080,351.2C1200,327,1320,212,1440,147C1560,82,1680,65,1800,81.7C1920,98,2040,147,2160,187.8C2280,229,2400,261,2520,294C2640,327,2760,359,2880,334.8C3000,310,3120,229,3240,236.8C3360,245,3480,343,3600,318.5C3720,294,3840,147,3960,89.8C4080,33,4200,65,4320,130.7C4440,196,4560,294,4680,285.8C4800,278,4920,163,5040,147C5160,131,5280,212,5400,212.3C5520,212,5640,131,5760,98C5880,65,6000,82,6120,114.3C6240,147,6360,196,6480,228.7C6600,261,6720,278,6840,245C6960,212,7080,131,7200,122.5C7320,114,7440,180,7560,228.7C7680,278,7800,310,7920,277.7C8040,245,8160,147,8280,130.7C8400,114,8520,180,8580,212.3L8640,245L8640,490L8580,490C8520,490,8400,490,8280,490C8160,490,8040,490,7920,490C7800,490,7680,490,7560,490C7440,490,7320,490,7200,490C7080,490,6960,490,6840,490C6720,490,6600,490,6480,490C6360,490,6240,490,6120,490C6000,490,5880,490,5760,490C5640,490,5520,490,5400,490C5280,490,5160,490,5040,490C4920,490,4800,490,4680,490C4560,490,4440,490,4320,490C4200,490,4080,490,3960,490C3840,490,3720,490,3600,490C3480,490,3360,490,3240,490C3120,490,3000,490,2880,490C2760,490,2640,490,2520,490C2400,490,2280,490,2160,490C2040,490,1920,490,1800,490C1680,490,1560,490,1440,490C1320,490,1200,490,1080,490C960,490,840,490,720,490C600,490,480,490,360,490C240,490,120,490,60,490L0,490Z"/></svg>